<?xml version="1.0" encoding="UTF-8" standalone="no"?>
<!DOCTYPE svg PUBLIC "-//W3C//DTD SVG 1.0//EN" "http://www.w3.org/TR/2001/PR-SVG-20010719/DTD/svg10.dtd">
<svg width="50cm" height="38cm" viewBox="-613 -363 992 758" xmlns="http://www.w3.org/2000/svg" xmlns:xlink="http://www.w3.org/1999/xlink">
  <g>
    <rect style="fill: #ffffff" x="46.1612" y="-38.2394" width="105" height="36"/>
    <rect style="fill: none; fill-opacity:0; stroke-width: 2; stroke: #000000" x="46.1612" y="-38.2394" width="105" height="36"/>
    <text font-size="12.8" style="fill: #000000;text-anchor:middle;font-family:monospace;font-style:normal;font-weight:normal" x="98.6612" y="-16.3581">Sambódromo</text>
  </g>
  <g>
    <rect style="fill: #ffffff" x="-219.724" y="-37.834" width="105" height="36"/>
    <rect style="fill: none; fill-opacity:0; stroke-width: 2; stroke: #000000" x="-219.724" y="-37.834" width="105" height="36"/>
    <text font-size="12.8" style="fill: #000000;text-anchor:middle;font-family:monospace;font-style:normal;font-weight:normal" x="-167.224" y="-15.9527">Campeonato</text>
  </g>
  <g>
    <rect style="fill: #ffffff" x="-610.684" y="-37.3526" width="74.2" height="36"/>
    <rect style="fill: none; fill-opacity:0; stroke-width: 2; stroke: #000000" x="-610.684" y="-37.3526" width="74.2" height="36"/>
    <text font-size="12.8" style="fill: #000000;text-anchor:middle;font-family:monospace;font-style:normal;font-weight:normal" x="-573.584" y="-15.4713">Escola</text>
  </g>
  <g>
    <rect style="fill: #ffffff" x="-421.63" y="257.17" width="74.2" height="36"/>
    <rect style="fill: none; fill-opacity:0; stroke-width: 2; stroke: #000000" x="-421.63" y="257.17" width="74.2" height="36"/>
    <text font-size="12.8" style="fill: #000000;text-anchor:middle;font-family:monospace;font-style:normal;font-weight:normal" x="-384.53" y="279.051">Jurado</text>
  </g>
  <g>
    <rect style="fill: #ffffff" x="-606.494" y="357.45" width="120.4" height="36"/>
    <rect style="fill: none; fill-opacity:0; stroke-width: 2; stroke: #000000" x="-606.494" y="357.45" width="120.4" height="36"/>
    <text font-size="12.8" style="fill: #000000;text-anchor:middle;font-family:monospace;font-style:normal;font-weight:normal" x="-546.294" y="379.331">Participante</text>
  </g>
  <g>
    <rect style="fill: #ffffff" x="-120.071" y="52.2904" width="105" height="36"/>
    <rect style="fill: none; fill-opacity:0; stroke-width: 2; stroke: #000000" x="-120.071" y="52.2904" width="105" height="36"/>
    <text font-size="12.8" style="fill: #000000;text-anchor:middle;font-family:monospace;font-style:normal;font-weight:normal" x="-67.5715" y="74.1716">Espectador</text>
  </g>
  <g>
    <ellipse style="fill: #ffffff" cx="98.8512" cy="-178.978" rx="50.8" ry="18"/>
    <ellipse style="fill: none; fill-opacity:0; stroke-width: 2; stroke: #000000" cx="98.8512" cy="-178.978" rx="50.8" ry="18"/>
    <text font-size="12.8" style="fill: #000000;text-anchor:middle;font-family:monospace;font-style:normal;font-weight:normal" x="98.8512" y="-175.097">endereço</text>
  </g>
  <g>
    <ellipse style="fill: #ffffff" cx="128.829" cy="-231.21" rx="81.6" ry="18"/>
    <ellipse style="fill: none; fill-opacity:0; stroke-width: 2; stroke: #000000" cx="128.829" cy="-231.21" rx="81.6" ry="18"/>
    <text font-size="12.8" style="fill: #000000;text-anchor:middle;font-family:monospace;font-style:normal;font-weight:normal" x="128.829" y="-227.329">data_inauguração</text>
  </g>
  <g>
    <rect style="fill: #ffffff" x="295.948" y="-37.5892" width="81.9" height="36"/>
    <rect style="fill: none; fill-opacity:0; stroke-width: 2; stroke: #000000" x="295.948" y="-37.5892" width="81.9" height="36"/>
    <rect style="fill: none; fill-opacity:0; stroke-width: 2; stroke: #000000" x="300.948" y="-32.5892" width="71.9" height="26"/>
    <text font-size="12.8" style="fill: #000000;text-anchor:middle;font-family:monospace;font-style:normal;font-weight:normal" x="336.898" y="-15.7079">Setores</text>
  </g>
  <g>
    <ellipse style="fill: #ffffff" cx="89.0572" cy="-76.7104" rx="43.1" ry="18"/>
    <ellipse style="fill: none; fill-opacity:0; stroke-width: 2; stroke: #000000" cx="89.0572" cy="-76.7104" rx="43.1" ry="18"/>
    <text font-size="12.8" style="fill: #000000;text-anchor:middle;font-family:monospace;font-style:normal;font-weight:normal" x="89.0572" y="-72.8291">código</text>
    <line style="fill: none; fill-opacity:0; stroke-width: 2; stroke: #000000" x1="65.9572" y1="-68.7104" x2="112.157" y2="-68.7104"/>
  </g>
  <g>
    <ellipse style="fill: #ffffff" cx="82.3572" cy="-126.092" rx="35.4" ry="18"/>
    <ellipse style="fill: none; fill-opacity:0; stroke-width: 2; stroke: #000000" cx="82.3572" cy="-126.092" rx="35.4" ry="18"/>
    <text font-size="12.8" style="fill: #000000;text-anchor:middle;font-family:monospace;font-style:normal;font-weight:normal" x="82.3572" y="-122.21">nome</text>
  </g>
  <g>
    <ellipse style="fill: #ffffff" cx="105.749" cy="-283.328" rx="58.5" ry="18"/>
    <ellipse style="fill: none; fill-opacity:0; stroke-width: 2; stroke-dasharray: 6; stroke: #000000" cx="105.749" cy="-283.328" rx="58.5" ry="18"/>
    <text font-size="12.8" style="fill: #000000;text-anchor:middle;font-family:monospace;font-style:normal;font-weight:normal" x="105.749" y="-279.447">capacidade</text>
  </g>
  <g>
    <polygon style="fill: #ffffff" points="174.343,-20.0128 213.593,-43.5628 252.843,-20.0128 213.593,3.5372 "/>
    <polygon style="fill: none; fill-opacity:0; stroke-width: 2; stroke: #000000" points="174.343,-20.0128 213.593,-43.5628 252.843,-20.0128 213.593,3.5372 "/>
    <polygon style="fill: none; fill-opacity:0; stroke-width: 2; stroke: #000000" points="182.343,-20.0128 213.593,-38.7628 244.843,-20.0128 213.593,-1.2628 "/>
    <text font-size="12.8" style="fill: #000000;text-anchor:end;font-family:monospace;font-style:normal;font-weight:normal" x="168.343" y="-26.0128">1</text>
    <text font-size="12.8" style="fill: #000000;text-anchor:start;font-family:monospace;font-style:normal;font-weight:normal" x="258.843" y="-26.0128">n</text>
    <text font-size="12.8" style="fill: #000000;text-anchor:middle;font-family:monospace;font-style:normal;font-weight:normal" x="213.593" y="-16.1316">detém</text>
  </g>
  <polyline style="fill: none; fill-opacity:0; stroke-width: 2; stroke: #000000" points="151.161,-20.2394 179.653,-20.2394 179.653,-20.0128 174.343,-20.0128 "/>
  <g>
    <polyline style="fill: none; fill-opacity:0; stroke-width: 2; stroke: #000000" points="253.74,-22.5128 276.841,-22.5128 276.841,-22.0892 294.943,-22.0892 "/>
    <polyline style="fill: none; fill-opacity:0; stroke-width: 2; stroke: #000000" points="253.74,-17.5128 271.841,-17.5128 271.841,-17.0892 294.943,-17.0892 "/>
  </g>
  <g>
    <ellipse style="fill: #ffffff" cx="323.314" cy="-174.516" rx="54.65" ry="18"/>
    <ellipse style="fill: none; fill-opacity:0; stroke-width: 2; stroke: #000000" cx="323.314" cy="-174.516" rx="54.65" ry="18"/>
    <text font-size="12.8" style="fill: #000000;text-anchor:middle;font-family:monospace;font-style:normal;font-weight:normal" x="323.314" y="-170.635">categoria</text>
  </g>
  <g>
    <ellipse style="fill: #ffffff" cx="337.218" cy="-119.414" rx="39.25" ry="18"/>
    <ellipse style="fill: none; fill-opacity:0; stroke-width: 2; stroke: #000000" cx="337.218" cy="-119.414" rx="39.25" ry="18"/>
    <text font-size="12.8" style="fill: #000000;text-anchor:middle;font-family:monospace;font-style:normal;font-weight:normal" x="337.218" y="-115.533">valor</text>
  </g>
  <g>
    <ellipse style="fill: #ffffff" cx="319.527" cy="-226.918" rx="58.5" ry="18"/>
    <ellipse style="fill: none; fill-opacity:0; stroke-width: 2; stroke: #000000" cx="319.527" cy="-226.918" rx="58.5" ry="18"/>
    <text font-size="12.8" style="fill: #000000;text-anchor:middle;font-family:monospace;font-style:normal;font-weight:normal" x="319.527" y="-223.037">capacidade</text>
  </g>
  <g>
    <rect style="fill: #ffffff" x="-53.2154" y="321.26" width="74.2" height="36"/>
    <rect style="fill: none; fill-opacity:0; stroke-width: 2; stroke: #000000" x="-53.2154" y="321.26" width="74.2" height="36"/>
    <text font-size="12.8" style="fill: #000000;text-anchor:middle;font-family:monospace;font-style:normal;font-weight:normal" x="-16.1154" y="343.141">Pessoa</text>
  </g>
  <g>
    <rect style="fill: #ffffff" x="100.399" y="102.03" width="89.6" height="36"/>
    <rect style="fill: none; fill-opacity:0; stroke-width: 2; stroke: #000000" x="100.399" y="102.03" width="89.6" height="36"/>
    <text font-size="12.8" style="fill: #000000;text-anchor:middle;font-family:monospace;font-style:normal;font-weight:normal" x="145.199" y="123.912">Fundador</text>
  </g>
  <g>
    <ellipse style="fill: #ffffff" cx="-16.1026" cy="273.753" rx="23.875" ry="18.0433"/>
    <ellipse style="fill: none; fill-opacity:0; stroke-width: 2; stroke: #000000" cx="-16.1026" cy="273.753" rx="23.875" ry="18.0433"/>
    <text font-size="12.8693" style="fill: #000000;text-anchor:middle;font-family:monospace;font-style:normal;font-weight:normal" x="-16.1026" y="277.656">o</text>
  </g>
  <line style="fill: none; fill-opacity:0; stroke-width: 2; stroke: #000000" x1="-15.0715" y1="88.2904" x2="-15.9967" y2="254.713"/>
  <line style="fill: none; fill-opacity:0; stroke-width: 2; stroke: #000000" x1="-486.094" y1="375.45" x2="-39.9776" y2="273.752"/>
  <line style="fill: none; fill-opacity:0; stroke-width: 2; stroke: #000000" x1="125.728" y1="139.036" x2="0.779568" y2="260.994"/>
  <g>
    <ellipse style="fill: #ffffff" cx="266.227" cy="173.199" rx="31.55" ry="18"/>
    <ellipse style="fill: none; fill-opacity:0; stroke-width: 2; stroke: #000000" cx="266.227" cy="173.199" rx="31.55" ry="18"/>
    <text font-size="12.8" style="fill: #000000;text-anchor:middle;font-family:monospace;font-style:normal;font-weight:normal" x="266.227" y="177.08">CPF</text>
    <line style="fill: none; fill-opacity:0; stroke-width: 2; stroke: #000000" x1="254.677" y1="181.199" x2="277.777" y2="181.199"/>
  </g>
  <g>
    <ellipse style="fill: #ffffff" cx="263.619" cy="214.479" rx="35.4" ry="18"/>
    <ellipse style="fill: none; fill-opacity:0; stroke-width: 2; stroke: #000000" cx="263.619" cy="214.479" rx="35.4" ry="18"/>
    <text font-size="12.8" style="fill: #000000;text-anchor:middle;font-family:monospace;font-style:normal;font-weight:normal" x="263.619" y="218.36">nome</text>
  </g>
  <g>
    <ellipse style="fill: #ffffff" cx="260.651" cy="292.168" rx="50.8" ry="18"/>
    <ellipse style="fill: none; fill-opacity:0; stroke-width: 2; stroke: #000000" cx="260.651" cy="292.168" rx="50.8" ry="18"/>
    <text font-size="12.8" style="fill: #000000;text-anchor:middle;font-family:monospace;font-style:normal;font-weight:normal" x="260.651" y="296.049">endereço</text>
  </g>
  <path style="fill: none; fill-opacity:0; stroke-width: 2; stroke: #000000" d="M -173.044,264.11 A 13.8334,13.8334 0 1 0 -170.731,281.074"/>
  <path style="fill: none; fill-opacity:0; stroke-width: 2; stroke: #000000" d="M -137.97,286.106 A 14.5108,14.5108 0 1 0 -133.123,305.778"/>
  <path style="fill: none; fill-opacity:0; stroke-width: 2; stroke: #000000" d="M -6.01614,238.924 A 13.5613,13.5613 0 1 0 -26.8703,238.74"/>
  <path style="fill: none; fill-opacity:0; stroke-width: 2; stroke: #000000" d="M 36.4095,238.216 A 12.9832,12.9832 0 1 0 24.2842,224.91"/>
  <line style="fill: none; fill-opacity:0; stroke-width: 2; stroke: #000000" x1="46.1612" y1="-38.2394" x2="46.3952" y2="-285.712"/>
  <line style="fill: none; fill-opacity:0; stroke-width: 2; stroke: #000000" x1="378.027" y1="-226.918" x2="377.848" y2="-37.5892"/>
  <g>
    <ellipse style="fill: #ffffff" cx="260.407" cy="333.166" rx="58.5" ry="18"/>
    <ellipse style="fill: none; fill-opacity:0; stroke-width: 2; stroke: #000000" cx="260.407" cy="333.166" rx="58.5" ry="18"/>
    <text font-size="12.8" style="fill: #000000;text-anchor:middle;font-family:monospace;font-style:normal;font-weight:normal" x="260.407" y="337.047">nascimento</text>
  </g>
  <g>
    <ellipse style="fill: #ffffff" cx="259.658" cy="120.052" rx="58.5" ry="18"/>
    <ellipse style="fill: none; fill-opacity:0; stroke-width: 2; stroke: #000000" cx="259.658" cy="120.052" rx="58.5" ry="18"/>
    <text font-size="12.8" style="fill: #000000;text-anchor:middle;font-family:monospace;font-style:normal;font-weight:normal" x="259.658" y="123.933">data_óbito</text>
  </g>
  <line style="fill: none; fill-opacity:0; stroke-width: 2; stroke: #000000" x1="191" y1="120.048" x2="201.158" y2="120.052"/>
  <g>
    <ellipse style="fill: #ffffff" cx="-171.166" cy="213.713" rx="50.8" ry="18"/>
    <ellipse style="fill: none; fill-opacity:0; stroke-width: 2; stroke: #000000" cx="-171.166" cy="213.713" rx="50.8" ry="18"/>
    <text font-size="12.8" style="fill: #000000;text-anchor:middle;font-family:monospace;font-style:normal;font-weight:normal" x="-171.166" y="217.594">telefone</text>
  </g>
  <g>
    <ellipse style="fill: #ffffff" cx="-160.152" cy="114.315" rx="39.25" ry="18"/>
    <ellipse style="fill: none; fill-opacity:0; stroke-width: 2; stroke: #000000" cx="-160.152" cy="114.315" rx="39.25" ry="18"/>
    <text font-size="12.8" style="fill: #000000;text-anchor:middle;font-family:monospace;font-style:normal;font-weight:normal" x="-160.152" y="118.196">email</text>
  </g>
  <g>
    <ellipse style="fill: #ffffff" cx="-170.865" cy="162.039" rx="50.8" ry="18"/>
    <ellipse style="fill: none; fill-opacity:0; stroke-width: 2; stroke: #000000" cx="-170.865" cy="162.039" rx="50.8" ry="18"/>
    <text font-size="12.8" style="fill: #000000;text-anchor:middle;font-family:monospace;font-style:normal;font-weight:normal" x="-170.865" y="165.92">ingresso</text>
  </g>
  <line style="fill: none; fill-opacity:0; stroke-width: 2; stroke: #000000" x1="-120.071" y1="88.2904" x2="-120.366" y2="213.713"/>
  <g>
    <ellipse style="fill: #ffffff" cx="-293.268" cy="230.334" rx="54.65" ry="18"/>
    <ellipse style="fill: none; fill-opacity:0; stroke-width: 2; stroke: #000000" cx="-293.268" cy="230.334" rx="54.65" ry="18"/>
    <text font-size="12.8" style="fill: #000000;text-anchor:middle;font-family:monospace;font-style:normal;font-weight:normal" x="-293.268" y="234.215">atividade</text>
  </g>
  <line style="fill: none; fill-opacity:0; stroke-width: 2; stroke: #000000" x1="-347.43" y1="257.17" x2="-347.918" y2="230.334"/>
  <g>
    <ellipse style="fill: #ffffff" cx="-525.335" cy="321.528" rx="39.25" ry="18"/>
    <ellipse style="fill: none; fill-opacity:0; stroke-width: 2; stroke: #000000" cx="-525.335" cy="321.528" rx="39.25" ry="18"/>
    <text font-size="12.8" style="fill: #000000;text-anchor:middle;font-family:monospace;font-style:normal;font-weight:normal" x="-525.335" y="325.409">cargo</text>
  </g>
  <g>
    <ellipse style="fill: #ffffff" cx="-574.7" cy="-58.0066" rx="35.4" ry="18"/>
    <ellipse style="fill: none; fill-opacity:0; stroke-width: 2; stroke: #000000" cx="-574.7" cy="-58.0066" rx="35.4" ry="18"/>
    <text font-size="12.8" style="fill: #000000;text-anchor:middle;font-family:monospace;font-style:normal;font-weight:normal" x="-574.7" y="-54.1253">CNPJ</text>
    <line style="fill: none; fill-opacity:0; stroke-width: 2; stroke: #000000" x1="-590.1" y1="-50.0066" x2="-559.3" y2="-50.0066"/>
  </g>
  <g>
    <ellipse style="fill: #ffffff" cx="-574.734" cy="-97.7177" rx="35.4" ry="18"/>
    <ellipse style="fill: none; fill-opacity:0; stroke-width: 2; stroke: #000000" cx="-574.734" cy="-97.7177" rx="35.4" ry="18"/>
    <text font-size="12.8" style="fill: #000000;text-anchor:middle;font-family:monospace;font-style:normal;font-weight:normal" x="-574.734" y="-93.8364">nome</text>
  </g>
  <g>
    <ellipse style="fill: #ffffff" cx="-539.828" cy="-138.422" rx="70.05" ry="18"/>
    <ellipse style="fill: none; fill-opacity:0; stroke-width: 2; stroke: #000000" cx="-539.828" cy="-138.422" rx="70.05" ry="18"/>
    <text font-size="12.8" style="fill: #000000;text-anchor:middle;font-family:monospace;font-style:normal;font-weight:normal" x="-539.828" y="-134.541">nome_fantasia</text>
  </g>
  <g>
    <ellipse style="fill: #ffffff" cx="-571.861" cy="-177.371" rx="39.25" ry="18"/>
    <ellipse style="fill: none; fill-opacity:0; stroke-width: 2; stroke: #000000" cx="-571.861" cy="-177.371" rx="39.25" ry="18"/>
    <text font-size="12.8" style="fill: #000000;text-anchor:middle;font-family:monospace;font-style:normal;font-weight:normal" x="-571.861" y="-173.49">cor 1</text>
  </g>
  <g>
    <ellipse style="fill: #ffffff" cx="-559.801" cy="-299.695" rx="50.8" ry="18"/>
    <ellipse style="fill: none; fill-opacity:0; stroke-width: 2; stroke: #000000" cx="-559.801" cy="-299.695" rx="50.8" ry="18"/>
    <text font-size="12.8" style="fill: #000000;text-anchor:middle;font-family:monospace;font-style:normal;font-weight:normal" x="-559.801" y="-295.814">endereço</text>
  </g>
  <g>
    <ellipse style="fill: #ffffff" cx="-188.94" cy="-75.6426" rx="31.55" ry="18"/>
    <ellipse style="fill: none; fill-opacity:0; stroke-width: 2; stroke: #000000" cx="-188.94" cy="-75.6426" rx="31.55" ry="18"/>
    <text font-size="12.8" style="fill: #000000;text-anchor:middle;font-family:monospace;font-style:normal;font-weight:normal" x="-188.94" y="-71.7613">ano</text>
    <line style="fill: none; fill-opacity:0; stroke-width: 2; stroke: #000000" x1="-200.49" y1="-67.6426" x2="-177.39" y2="-67.6426"/>
  </g>
  <g>
    <ellipse style="fill: #ffffff" cx="-176.092" cy="-130.108" rx="43.1" ry="18"/>
    <ellipse style="fill: none; fill-opacity:0; stroke-width: 2; stroke: #000000" cx="-176.092" cy="-130.108" rx="43.1" ry="18"/>
    <text font-size="12.8" style="fill: #000000;text-anchor:middle;font-family:monospace;font-style:normal;font-weight:normal" x="-176.092" y="-126.227">estado</text>
    <line style="fill: none; fill-opacity:0; stroke-width: 2; stroke: #000000" x1="-199.192" y1="-122.108" x2="-152.992" y2="-122.108"/>
  </g>
  <g>
    <ellipse style="fill: #ffffff" cx="-156.842" cy="-181.979" rx="62.35" ry="18"/>
    <ellipse style="fill: none; fill-opacity:0; stroke-width: 2; stroke: #000000" cx="-156.842" cy="-181.979" rx="62.35" ry="18"/>
    <text font-size="12.8" style="fill: #000000;text-anchor:middle;font-family:monospace;font-style:normal;font-weight:normal" x="-156.842" y="-178.098">data_inicio</text>
  </g>
  <g>
    <ellipse style="fill: #ffffff" cx="-167.096" cy="-236.444" rx="50.8" ry="18"/>
    <ellipse style="fill: none; fill-opacity:0; stroke-width: 2; stroke: #000000" cx="-167.096" cy="-236.444" rx="50.8" ry="18"/>
    <text font-size="12.8" style="fill: #000000;text-anchor:middle;font-family:monospace;font-style:normal;font-weight:normal" x="-167.096" y="-232.563">data_fim</text>
  </g>
  <g>
    <ellipse style="fill: #ffffff" cx="-156.842" cy="-285.722" rx="62.35" ry="18"/>
    <ellipse style="fill: none; fill-opacity:0; stroke-width: 2; stroke: #000000" cx="-156.842" cy="-285.722" rx="62.35" ry="18"/>
    <text font-size="12.8" style="fill: #000000;text-anchor:middle;font-family:monospace;font-style:normal;font-weight:normal" x="-156.842" y="-281.841">regulamento</text>
  </g>
  <line style="fill: none; fill-opacity:0; stroke-width: 2; stroke: #000000" x1="-219.192" y1="-285.722" x2="-219.724" y2="-37.834"/>
  <g>
    <polygon style="fill: #ffffff" points="55.6563,46.4192 98.7563,20.5592 141.856,46.4192 98.7563,72.2792 "/>
    <polygon style="fill: none; fill-opacity:0; stroke-width: 2; stroke: #000000" points="55.6563,46.4192 98.7563,20.5592 141.856,46.4192 98.7563,72.2792 "/>
    <text font-size="12.8" style="fill: #000000;text-anchor:start;font-family:monospace;font-style:normal;font-weight:normal" x="102.756" y="14.5592">n</text>
    <text font-size="12.8" style="fill: #000000;text-anchor:start;font-family:monospace;font-style:normal;font-weight:normal" x="102.756" y="94.2792">m</text>
    <text font-size="12.8" style="fill: #000000;text-anchor:middle;font-family:monospace;font-style:normal;font-weight:normal" x="98.7563" y="50.3005">fundar</text>
  </g>
  <polyline style="fill: none; fill-opacity:0; stroke-width: 2; stroke: #000000" points="145.199,102.03 145.199,72.2792 98.7563,72.2792 "/>
  <polyline style="fill: none; fill-opacity:0; stroke-width: 2; stroke: #000000" points="98.6612,-2.2394 98.6612,16.686 98.7563,16.686 98.7563,19.5533 "/>
  <g>
    <polygon style="fill: #ffffff" points="-608.652,97.371 -565.552,71.511 -522.452,97.371 -565.552,123.231 "/>
    <polygon style="fill: none; fill-opacity:0; stroke-width: 2; stroke: #000000" points="-608.652,97.371 -565.552,71.511 -522.452,97.371 -565.552,123.231 "/>
    <text font-size="12.8" style="fill: #000000;text-anchor:start;font-family:monospace;font-style:normal;font-weight:normal" x="-561.552" y="65.511">1</text>
    <text font-size="12.8" style="fill: #000000;text-anchor:start;font-family:monospace;font-style:normal;font-weight:normal" x="-561.552" y="145.231">n</text>
    <text font-size="12.8" style="fill: #000000;text-anchor:middle;font-family:monospace;font-style:normal;font-weight:normal" x="-565.552" y="101.252">filiar</text>
  </g>
  <polyline style="fill: none; fill-opacity:0; stroke-width: 2; stroke: #000000" points="-573.584,-0.343323 -573.584,35.094 -565.552,35.094 -565.552,70.5314 "/>
  <polyline style="fill: none; fill-opacity:0; stroke-width: 2; stroke: #000000" points="-565.552,124.211 -565.552,240.83 -606.494,240.83 -606.494,357.45 "/>
  <g>
    <rect style="fill: #ffffff" x="-390.206" y="-48.9154" width="97.3" height="58.38"/>
    <rect style="fill: none; fill-opacity:0; stroke-width: 2; stroke: #000000" x="-390.206" y="-48.9154" width="97.3" height="58.38"/>
    <polygon style="fill: #ffffff" points="-390.206,-19.7254 -341.556,-48.9154 -292.906,-19.7254 -341.556,9.4646 "/>
    <polygon style="fill: none; fill-opacity:0; stroke-width: 2; stroke: #000000" points="-390.206,-19.7254 -341.556,-48.9154 -292.906,-19.7254 -341.556,9.4646 "/>
    <text font-size="12.8" style="fill: #000000;text-anchor:middle;font-family:monospace;font-style:normal;font-weight:normal" x="-341.556" y="-15.8442">ingressa </text>
  </g>
  <polyline style="fill: none; fill-opacity:0; stroke-width: 2; stroke: #000000" points="-536.484,-19.3526 -463.848,-19.3526 -463.848,-19.7254 -391.212,-19.7254 "/>
  <polyline style="fill: none; fill-opacity:0; stroke-width: 2; stroke: #000000" points="-291.9,-19.7254 -255.812,-19.7254 -255.812,-19.834 -219.724,-19.834 "/>
  <text font-size="12.8" style="fill: #000000;text-anchor:start;font-family:sans-serif;font-style:normal;font-weight:normal" x="-376" y="34.5">
    <tspan x="-376" y="34.5">Integrante</tspan>
  </text>
  <text font-size="12.8" style="fill: #000000;text-anchor:start;font-family:sans-serif;font-style:normal;font-weight:normal" x="-419" y="-31.5">
    <tspan x="-419" y="-31.5">n</tspan>
  </text>
  <text font-size="12.8" style="fill: #000000;text-anchor:start;font-family:sans-serif;font-style:normal;font-weight:normal" x="-277" y="-34.5">
    <tspan x="-277" y="-34.5">1</tspan>
  </text>
  <g>
    <ellipse style="fill: #ffffff" cx="-348.306" cy="-74.848" rx="39.25" ry="18"/>
    <ellipse style="fill: none; fill-opacity:0; stroke-width: 2; stroke: #000000" cx="-348.306" cy="-74.848" rx="39.25" ry="18"/>
    <text font-size="12.8" style="fill: #000000;text-anchor:middle;font-family:monospace;font-style:normal;font-weight:normal" x="-348.306" y="-70.9668">grupo</text>
  </g>
  <g>
    <ellipse style="fill: #ffffff" cx="-333.914" cy="-118.69" rx="54.65" ry="18"/>
    <ellipse style="fill: none; fill-opacity:0; stroke-width: 2; stroke: #000000" cx="-333.914" cy="-118.69" rx="54.65" ry="18"/>
    <text font-size="12.8" style="fill: #000000;text-anchor:middle;font-family:monospace;font-style:normal;font-weight:normal" x="-333.914" y="-114.808">colocação</text>
  </g>
  <text font-size="12.8" style="fill: #000000;text-anchor:start;font-family:sans-serif;font-style:normal;font-weight:normal" x="-279.808" y="59.1244">
    <tspan x="-279.808" y="59.1244"></tspan>
  </text>
  <text font-size="12.8" style="fill: #000000;text-anchor:start;font-family:sans-serif;font-style:normal;font-weight:normal" x="-376" y="57.5">
    <tspan x="-376" y="57.5">PK = CNPJ + estado + ano.</tspan>
  </text>
  <g>
    <ellipse style="fill: #ffffff" cx="-347.304" cy="-163.352" rx="43.1" ry="18"/>
    <ellipse style="fill: none; fill-opacity:0; stroke-width: 2; stroke: #000000" cx="-347.304" cy="-163.352" rx="43.1" ry="18"/>
    <text font-size="12.8" style="fill: #000000;text-anchor:middle;font-family:monospace;font-style:normal;font-weight:normal" x="-347.304" y="-159.471">enredo</text>
  </g>
  <g>
    <ellipse style="fill: #ffffff" cx="-313.822" cy="-208.352" rx="73.9" ry="18"/>
    <ellipse style="fill: none; fill-opacity:0; stroke-width: 2; stroke: #000000" cx="-313.822" cy="-208.352" rx="73.9" ry="18"/>
    <text font-size="12.8" style="fill: #000000;text-anchor:middle;font-family:monospace;font-style:normal;font-weight:normal" x="-313.822" y="-204.471">data_desfile *</text>
    <line style="fill: none; fill-opacity:0; stroke-width: 2; stroke: #000000" x1="-367.722" y1="-200.352" x2="-259.922" y2="-200.352"/>
  </g>
  <g>
    <ellipse style="fill: #ffffff" cx="-326.048" cy="-255.994" rx="62.35" ry="18"/>
    <ellipse style="fill: none; fill-opacity:0; stroke-width: 2; stroke: #000000" cx="-326.048" cy="-255.994" rx="62.35" ry="18"/>
    <text font-size="12.8" style="fill: #000000;text-anchor:middle;font-family:monospace;font-style:normal;font-weight:normal" x="-326.048" y="-252.113">hora_inicio</text>
  </g>
  <g>
    <ellipse style="fill: #ffffff" cx="-337.77" cy="-300.654" rx="50.8" ry="18"/>
    <ellipse style="fill: none; fill-opacity:0; stroke-width: 2; stroke: #000000" cx="-337.77" cy="-300.654" rx="50.8" ry="18"/>
    <text font-size="12.8" style="fill: #000000;text-anchor:middle;font-family:monospace;font-style:normal;font-weight:normal" x="-337.77" y="-296.773">hora_fim</text>
  </g>
  <g>
    <ellipse style="fill: #ffffff" cx="-319.348" cy="-343.766" rx="70.05" ry="18"/>
    <ellipse style="fill: none; fill-opacity:0; stroke-width: 2; stroke-dasharray: 6; stroke: #000000" cx="-319.348" cy="-343.766" rx="70.05" ry="18"/>
    <text font-size="12.8" style="fill: #000000;text-anchor:middle;font-family:monospace;font-style:normal;font-weight:normal" x="-319.348" y="-339.885">tempo_desfile</text>
  </g>
  <line style="fill: none; fill-opacity:0; stroke-width: 2; stroke: #000000" x1="-389.398" y1="-343.766" x2="-390.206" y2="-48.9154"/>
  <g>
    <polygon style="fill: #ffffff" points="-75.6988,-20.0232 -32.5988,-45.8832 10.5012,-20.0232 -32.5988,5.8368 "/>
    <polygon style="fill: none; fill-opacity:0; stroke-width: 2; stroke: #000000" points="-75.6988,-20.0232 -32.5988,-45.8832 10.5012,-20.0232 -32.5988,5.8368 "/>
    <text font-size="12.8" style="fill: #000000;text-anchor:end;font-family:monospace;font-style:normal;font-weight:normal" x="-81.6988" y="-26.0232">n</text>
    <text font-size="12.8" style="fill: #000000;text-anchor:start;font-family:monospace;font-style:normal;font-weight:normal" x="16.5012" y="-26.0232">m</text>
    <text font-size="12.8" style="fill: #000000;text-anchor:middle;font-family:monospace;font-style:normal;font-weight:normal" x="-32.5988" y="-16.1419">sediar</text>
  </g>
  <polyline style="fill: none; fill-opacity:0; stroke-width: 2; stroke: #000000" points="-114.724,-19.834 -95.2114,-19.834 -95.2114,-20.0232 -75.6988,-20.0232 "/>
  <polyline style="fill: none; fill-opacity:0; stroke-width: 2; stroke: #000000" points="10.5012,-20.0232 27.8279,-20.0232 27.8279,-20.2394 45.1547,-20.2394 "/>
  <polyline style="fill: none; fill-opacity:0; stroke-width: 2; stroke: #000000" points="-384.404,101.789 -384.404,19.8381 -341.556,19.8381 -341.556,10.4592 "/>
  <polyline style="fill: none; fill-opacity:0; stroke-width: 2; stroke: #000000" points="-384.404,155.45 -384.404,206.31 -384.53,206.31 -384.53,257.17 "/>
  <g>
    <polygon style="fill: #ffffff" points="6.95032,149.128 38.5003,130.198 70.0503,149.128 38.5003,168.058 "/>
    <polygon style="fill: none; fill-opacity:0; stroke-width: 2; stroke: #000000" points="6.95032,149.128 38.5003,130.198 70.0503,149.128 38.5003,168.058 "/>
    <text font-size="12.8" style="fill: #000000;text-anchor:end;font-family:monospace;font-style:normal;font-weight:normal" x="0.95032" y="143.128">m</text>
    <text font-size="12.8" style="fill: #000000;text-anchor:start;font-family:monospace;font-style:normal;font-weight:normal" x="76.0503" y="143.128">1</text>
    <text font-size="12.8" style="fill: #000000;text-anchor:middle;font-family:monospace;font-style:normal;font-weight:normal" x="38.5003" y="153.009">SEI</text>
  </g>
  <polyline style="fill: none; fill-opacity:0; stroke-width: 2; stroke: #000000" points="6.95032,149.128 6.95032,70.2904 -15.0715,70.2904 "/>
  <polyline style="fill: none; fill-opacity:0; stroke-width: 2; stroke: #000000" points="38.5004,130.198 38.5004,31.4348 -292.906,31.4348 -292.906,9.4646 "/>
  <g>
    <ellipse style="fill: #ffffff" cx="-278.783" cy="99.4887" rx="46.95" ry="18"/>
    <ellipse style="fill: none; fill-opacity:0; stroke-width: 2; stroke: #000000" cx="-278.783" cy="99.4887" rx="46.95" ry="18"/>
    <text font-size="12.8" style="fill: #000000;text-anchor:middle;font-family:monospace;font-style:normal;font-weight:normal" x="-278.783" y="103.37">quesito</text>
  </g>
  <g>
    <ellipse style="fill: #ffffff" cx="-285.208" cy="153.004" rx="35.4" ry="18"/>
    <ellipse style="fill: none; fill-opacity:0; stroke-width: 2; stroke: #000000" cx="-285.208" cy="153.004" rx="35.4" ry="18"/>
    <text font-size="12.8" style="fill: #000000;text-anchor:middle;font-family:monospace;font-style:normal;font-weight:normal" x="-285.208" y="156.886">nota</text>
  </g>
  <line style="fill: none; fill-opacity:0; stroke-width: 2; stroke: #000000" x1="-320.608" y1="153.004" x2="-341.304" y2="128.61"/>
  <line style="fill: none; fill-opacity:0; stroke-width: 2; stroke: #000000" x1="-325.733" y1="99.4887" x2="-341.304" y2="128.61"/>
  <polyline style="fill: none; fill-opacity:0; stroke-width: 2; stroke: #000000" points="71.0427,149.128 337.868,149.128 337.868,-1.5892 377.848,-1.5892 "/>
  <line style="fill: none; fill-opacity:0; stroke-width: 2; stroke: #000000" x1="20.0676" y1="321.26" x2="234.677" y2="173.199"/>
  <line style="fill: none; fill-opacity:0; stroke-width: 2; stroke: #000000" x1="20.9846" y1="339.26" x2="209.851" y2="292.168"/>
  <line style="fill: none; fill-opacity:0; stroke-width: 2; stroke: #000000" x1="20.9846" y1="357.26" x2="201.907" y2="333.166"/>
  <line style="fill: none; fill-opacity:0; stroke-width: 2; stroke: #000000" x1="20.0676" y1="321.26" x2="228.219" y2="214.479"/>
  <line style="fill: none; fill-opacity:0; stroke-width: 2; stroke: #000000" x1="-347.43" y1="275.17" x2="-39.9776" y2="273.754"/>
  <line style="fill: none; fill-opacity:0; stroke-width: 2; stroke: #000000" x1="-486.085" y1="321.528" x2="-486.094" y2="357.45"/>
  <text font-size="12.8" style="fill: #000000;text-anchor:start;font-family:sans-serif;font-style:normal;font-weight:normal" x="44" y="119.186">
    <tspan x="44" y="119.186">n</tspan>
    <tspan x="44" y="135.186"></tspan>
  </text>
  <g>
    <ellipse style="fill: #ffffff" cx="334.397" cy="-65.9491" rx="43.1" ry="18"/>
    <ellipse style="fill: none; fill-opacity:0; stroke-width: 2; stroke: #000000" cx="334.397" cy="-65.9491" rx="43.1" ry="18"/>
    <text font-size="12.8" style="fill: #000000;text-anchor:middle;font-family:monospace;font-style:normal;font-weight:normal" x="334.397" y="-62.0678">número</text>
    <line style="fill: none; fill-opacity:0; stroke-width: 2; stroke-dasharray: 6; stroke: #000000" x1="311.297" y1="-57.9491" x2="357.497" y2="-57.9491"/>
  </g>
  <g>
    <polyline style="fill: none; fill-opacity:0; stroke-width: 2; stroke: #000000" points="-18.6154,321.26 -18.6154,304.533 -18.6026,304.533 -18.6026,292.806 "/>
    <polyline style="fill: none; fill-opacity:0; stroke-width: 2; stroke: #000000" points="-13.6154,321.26 -13.6154,309.533 -13.6026,309.533 -13.6026,292.806 "/>
  </g>
  <g>
    <ellipse style="fill: #ffffff" cx="-540.408" cy="-342.677" rx="70.05" ry="18"/>
    <ellipse style="fill: none; fill-opacity:0; stroke-width: 2; stroke: #000000" cx="-540.408" cy="-342.677" rx="70.05" ry="18"/>
    <text font-size="12.8" style="fill: #000000;text-anchor:middle;font-family:monospace;font-style:normal;font-weight:normal" x="-540.408" y="-338.796">Data_Fundação</text>
  </g>
  <line style="fill: none; fill-opacity:0; stroke-width: 2; stroke: #000000" x1="-610.458" y1="-342.677" x2="-610.684" y2="-37.3526"/>
  <g>
    <ellipse style="fill: #ffffff" cx="260.052" cy="253.242" rx="35.4" ry="18"/>
    <ellipse style="fill: none; fill-opacity:0; stroke-width: 2; stroke: #000000" cx="260.052" cy="253.242" rx="35.4" ry="18"/>
    <text font-size="12.8" style="fill: #000000;text-anchor:middle;font-family:monospace;font-style:normal;font-weight:normal" x="260.052" y="257.124">Sexo</text>
  </g>
  <g>
    <ellipse style="fill: #ffffff" cx="261.819" cy="375.294" rx="70.05" ry="18"/>
    <ellipse style="fill: none; fill-opacity:0; stroke-width: 2; stroke: #000000" cx="261.819" cy="375.294" rx="70.05" ry="18"/>
    <text font-size="12.8" style="fill: #000000;text-anchor:middle;font-family:monospace;font-style:normal;font-weight:normal" x="261.819" y="379.175">Nacionalidade</text>
  </g>
  <line style="fill: none; fill-opacity:0; stroke-width: 2; stroke: #000000" x1="20.9846" y1="357.26" x2="193.584" y2="370.185"/>
  <line style="fill: none; fill-opacity:0; stroke-width: 2; stroke: #000000" x1="23.7968" y1="337.35" x2="224.652" y2="253.242"/>
  <g>
    <ellipse style="fill: #ffffff" cx="-571.196" cy="-259.354" rx="39.25" ry="18"/>
    <ellipse style="fill: none; fill-opacity:0; stroke-width: 2; stroke: #000000" cx="-571.196" cy="-259.354" rx="39.25" ry="18"/>
    <text font-size="12.8" style="fill: #000000;text-anchor:middle;font-family:monospace;font-style:normal;font-weight:normal" x="-571.196" y="-255.473">cor 3</text>
  </g>
  <g>
    <ellipse style="fill: #ffffff" cx="-471.278" cy="62.3433" rx="70.05" ry="18"/>
    <ellipse style="fill: none; fill-opacity:0; stroke-width: 2; stroke: #000000" cx="-471.278" cy="62.3433" rx="70.05" ry="18"/>
    <text font-size="12.8" style="fill: #000000;text-anchor:middle;font-family:monospace;font-style:normal;font-weight:normal" x="-471.278" y="66.2245">data_filiação</text>
  </g>
  <line style="fill: none; fill-opacity:0; stroke-width: 2; stroke: #000000" x1="-522.452" y1="97.371" x2="-496.721" y2="79.7588"/>
  <g>
    <ellipse style="fill: #ffffff" cx="-478.284" cy="173.845" rx="81.6" ry="18"/>
    <ellipse style="fill: none; fill-opacity:0; stroke-width: 2; stroke: #000000" cx="-478.284" cy="173.845" rx="81.6" ry="18"/>
    <text font-size="12.8" style="fill: #000000;text-anchor:middle;font-family:monospace;font-style:normal;font-weight:normal" x="-478.284" y="177.726">data_desfiliação</text>
  </g>
  <line style="fill: none; fill-opacity:0; stroke-width: 2; stroke: #000000" x1="-522.452" y1="97.371" x2="-489.094" y2="155.128"/>
  <g>
    <ellipse style="fill: #ffffff" cx="-570.489" cy="-219.415" rx="39.25" ry="18"/>
    <ellipse style="fill: none; fill-opacity:0; stroke-width: 2; stroke: #000000" cx="-570.489" cy="-219.415" rx="39.25" ry="18"/>
    <text font-size="12.8" style="fill: #000000;text-anchor:middle;font-family:monospace;font-style:normal;font-weight:normal" x="-570.489" y="-215.534">cor 2</text>
  </g>
  <g>
    <polygon style="fill: #ffffff" points="-427.504,128.61 -384.404,102.75 -341.304,128.61 -384.404,154.47 "/>
    <polygon style="fill: none; fill-opacity:0; stroke-width: 2; stroke: #000000" points="-427.504,128.61 -384.404,102.75 -341.304,128.61 -384.404,154.47 "/>
    <text font-size="12.8" style="fill: #000000;text-anchor:start;font-family:monospace;font-style:normal;font-weight:normal" x="-380.404" y="96.75">n</text>
    <text font-size="12.8" style="fill: #000000;text-anchor:start;font-family:monospace;font-style:normal;font-weight:normal" x="-380.404" y="176.47">m</text>
    <text font-size="12.8" style="fill: #000000;text-anchor:middle;font-family:monospace;font-style:normal;font-weight:normal" x="-384.404" y="132.491">julgar</text>
  </g>
</svg>
